<?xml version="1.0" encoding="UTF-8"?>
<!DOCTYPE svg PUBLIC "-//W3C//DTD SVG 1.1//EN" "http://www.w3.org/Graphics/SVG/1.1/DTD/svg11.dtd">
<!-- Creator: CorelDRAW 2018 (64-Bit) -->
<svg xmlns="http://www.w3.org/2000/svg" xml:space="preserve" width="85.8124mm" height="85.8124mm" version="1.1" style="shape-rendering:geometricPrecision; text-rendering:geometricPrecision; image-rendering:optimizeQuality; fill-rule:evenodd; clip-rule:evenodd"
viewBox="0 0 1378.36 1378.36"
 xmlns:xlink="http://www.w3.org/1999/xlink">
 <defs>
  <style type="text/css">
   <![CDATA[
    .fil0 {fill:black}
    .fil3 {fill:#F22D3E}
    .fil1 {fill:black}
    .fil2 {fill:black}
    .fil4 {fill:black;fill-rule:nonzero}
   ]]>
  </style>
 </defs>
 <g id="Layer_x0020_1">
  <metadata id="CorelCorpID_0Corel-Layer"/>
  <path class="fil1" d="M836.52 1162.27c-10.81,-55.13 58.57,-59.2 63.23,-19.34 2.81,24.02 -3.7,38.65 -22.56,43.82 -21.24,5.83 -37.12,-6.43 -40.67,-24.48zm64.41 -61.83c-5.35,-1.97 -11.5,-11.45 -30.36,-13.54 -92.31,-10.22 -94.78,143.34 -0.22,130.72 17.64,-2.35 20.23,-9.3 30.55,-14.65l0.45 13.09 32.15 0.1 0.03 -126.61 -32.04 0.1 -0.57 10.79z"/>
  <path class="fil1" d="M201.39 1158.13c-5.04,-13.65 2.5,-30.49 11.64,-37.44 10.61,-8.07 30.57,-10.52 38.81,0.51l-50.45 36.93zm14.6 25.12l75.88 -57.12c-16.22,-58.11 -116.95,-54.21 -123.78,18.58 -7.22,76.96 88.98,95.86 124.62,49.94l-18.37 -20.94c-3.78,2.47 -33.37,29.98 -58.35,9.54z"/>
  <path class="fil2" d="M342.51 1215.93c-0.17,-20.8 -0.62,-42.85 -0.02,-63.55 0.51,-17.89 8.17,-33.05 25.53,-34.76 21.4,-2.11 24.1,14.91 24.1,39.64l0 58.71 34.49 0 0 -58.63c-0.02,-28.46 3.11,-69.11 -43.83,-70.31 -23.01,-0.58 -27.62,8.24 -41.02,16.17l-0.52 -13.47 -33.05 -0.2 -0.01 126.43 34.33 -0.03z"/>
  <path class="fil1" d="M770.51 1131.66l22.24 -18.68c-20.81,-38.71 -119.82,-41.44 -121.69,37.73 -1.98,83.83 101.4,79.89 120.78,44.42l-19.69 -21.69c-8.96,8.1 -21.12,18.98 -41.67,13.74 -31.11,-7.93 -31.85,-59.38 -1.93,-68.5 23.79,-7.25 34.09,6.2 41.96,12.98z"/>
  <path class="fil1" d="M622.42 1216.26l0 -42.47c0,-10.15 1,-19.78 4,-27.61 9.54,-24.87 30.58,-26.19 41.54,-31.7l-10.82 -27.43c-13.56,0.15 -20.9,6.97 -28.82,15.21 -3.65,3.79 -3.75,4.99 -6.87,7.39l-0.41 -20.14 -33.5 1.15 0 125.35 34.88 0.24z"/>
  <path class="fil3" d="M709.79 158.54c3.94,0 7.86,0.07 11.77,0.18l-4.58 198.46c-2.39,-0.08 -4.79,-0.14 -7.19,-0.14 -2.41,0 -4.81,0.06 -7.2,0.14l-4.58 -198.46c3.91,-0.11 7.84,-0.18 11.78,-0.18z"/>
  <path class="fil3" d="M772.42 163.46c3.89,0.62 7.75,1.3 11.6,2.02l-35.57 195.3c-2.35,-0.46 -4.7,-0.89 -7.09,-1.27 -2.38,-0.38 -4.76,-0.69 -7.13,-0.98l26.52 -196.73c3.88,0.5 7.77,1.04 11.66,1.66z"/>
  <path class="fil3" d="M833.5 178.13c3.75,1.22 7.46,2.5 11.14,3.81l-65.68 187.33c-2.25,-0.82 -4.51,-1.61 -6.8,-2.36 -2.29,-0.75 -4.59,-1.43 -6.89,-2.09l56.97 -190.16c3.76,1.1 7.51,2.25 11.26,3.46z"/>
  <path class="fil3" d="M891.53 202.17c3.51,1.79 6.97,3.63 10.41,5.51l-94.18 174.75c-2.09,-1.16 -4.2,-2.3 -6.35,-3.39 -2.15,-1.1 -4.31,-2.13 -6.47,-3.14l86.02 -178.91c3.54,1.67 7.07,3.39 10.58,5.18z"/>
  <path class="fil3" d="M945.09 234.99c3.19,2.31 6.32,4.68 9.42,7.07l-120.36 157.86c-1.88,-1.47 -3.79,-2.93 -5.74,-4.34 -1.95,-1.42 -3.92,-2.78 -5.9,-4.12l112.95 -163.25c3.23,2.21 6.45,4.46 9.63,6.77z"/>
  <path class="fil3" d="M992.86 275.79c2.79,2.79 5.51,5.61 8.2,8.46l-143.57 137.09c-1.63,-1.75 -3.28,-3.48 -4.99,-5.19 -1.7,-1.7 -3.44,-3.36 -5.19,-4.99l137.09 -143.57c2.85,2.68 5.67,5.41 8.46,8.2z"/>
  <path class="fil3" d="M647.17 163.46c3.89,-0.62 7.78,-1.16 11.66,-1.66l26.52 196.73c-2.37,0.29 -4.75,0.61 -7.13,0.98 -2.38,0.38 -4.74,0.81 -7.09,1.27l-35.57 -195.3c3.85,-0.72 7.71,-1.41 11.6,-2.02z"/>
  <path class="fil3" d="M586.09 178.13c3.75,-1.22 7.5,-2.36 11.25,-3.46l56.97 190.16c-2.3,0.66 -4.6,1.34 -6.89,2.09 -2.29,0.74 -4.55,1.54 -6.8,2.36l-65.68 -187.33c3.69,-1.32 7.4,-2.6 11.14,-3.81z"/>
  <path class="fil3" d="M528.05 202.17c3.51,-1.79 7.04,-3.51 10.58,-5.18l86.02 178.91c-2.17,1.01 -4.33,2.04 -6.48,3.14 -2.15,1.09 -4.25,2.23 -6.35,3.39l-94.18 -174.75c3.43,-1.88 6.9,-3.72 10.41,-5.51z"/>
  <path class="fil3" d="M474.5 234.99c3.19,-2.32 6.4,-4.56 9.63,-6.77l112.95 163.25c-1.98,1.34 -3.95,2.7 -5.9,4.12 -1.95,1.42 -3.86,2.87 -5.74,4.34l-120.36 -157.86c3.1,-2.39 6.23,-4.75 9.42,-7.07z"/>
  <path class="fil3" d="M426.73 275.79c2.79,-2.79 5.61,-5.51 8.46,-8.2l137.09 143.57c-1.75,1.63 -3.48,3.28 -5.19,4.99 -1.7,1.7 -3.36,3.44 -4.99,5.19l-143.57 -137.09c2.68,-2.85 5.41,-5.67 8.2,-8.46z"/>
  <path class="fil3" d="M385.93 323.55c2.31,-3.19 4.68,-6.32 7.07,-9.42l157.86 120.36c-1.47,1.88 -2.93,3.79 -4.34,5.74 -1.42,1.95 -2.78,3.92 -4.12,5.9l-163.25 -112.95c2.21,-3.23 4.46,-6.45 6.77,-9.63z"/>
  <path class="fil3" d="M353.11 377.11c1.79,-3.51 3.63,-6.97 5.51,-10.41l174.75 94.18c-1.16,2.09 -2.3,4.2 -3.39,6.35 -1.09,2.15 -2.13,4.31 -3.14,6.48l-178.91 -86.02c1.68,-3.54 3.39,-7.07 5.18,-10.58z"/>
  <path class="fil3" d="M329.07 435.15c1.22,-3.75 2.5,-7.46 3.81,-11.14l187.33 65.68c-0.82,2.25 -1.61,4.51 -2.36,6.8 -0.75,2.29 -1.43,4.59 -2.09,6.89l-190.16 -56.97c1.1,-3.76 2.25,-7.51 3.46,-11.25z"/>
  <path class="fil3" d="M314.41 496.23c0.62,-3.89 1.3,-7.75 2.02,-11.6l195.3 35.57c-0.46,2.35 -0.89,4.7 -1.27,7.09 -0.38,2.38 -0.69,4.76 -0.98,7.13l-196.73 -26.52c0.5,-3.88 1.04,-7.77 1.66,-11.66z"/>
  <path class="fil3" d="M309.48 558.85c0,-3.94 0.07,-7.86 0.18,-11.78l198.46 4.58c-0.08,2.39 -0.14,4.79 -0.14,7.2 0,2.41 0.06,4.81 0.14,7.19l-198.46 4.58c-0.11,-3.91 -0.18,-7.84 -0.18,-11.77z"/>
  <path class="fil3" d="M314.41 621.47c-0.62,-3.89 -1.16,-7.78 -1.66,-11.66l196.73 -26.52c0.29,2.37 0.61,4.75 0.98,7.13 0.38,2.38 0.81,4.74 1.27,7.09l-195.3 35.57c-0.72,-3.85 -1.41,-7.71 -2.02,-11.6z"/>
  <path class="fil3" d="M329.07 682.55c-1.22,-3.75 -2.36,-7.5 -3.46,-11.25l190.16 -56.97c0.66,2.3 1.34,4.59 2.09,6.89 0.75,2.29 1.54,4.55 2.36,6.8l-187.33 65.68c-1.32,-3.68 -2.6,-7.4 -3.81,-11.14z"/>
  <path class="fil3" d="M353.11 740.59c-1.79,-3.51 -3.51,-7.04 -5.18,-10.58l178.91 -86.02c1.01,2.17 2.05,4.33 3.14,6.47 1.09,2.15 2.23,4.26 3.39,6.35l-174.75 94.18c-1.88,-3.43 -3.72,-6.9 -5.51,-10.41z"/>
  <path class="fil3" d="M385.93 794.15c-2.32,-3.19 -4.56,-6.4 -6.77,-9.63l163.25 -112.95c1.34,1.98 2.7,3.95 4.12,5.9 1.42,1.95 2.87,3.86 4.34,5.74l-157.86 120.36c-2.39,-3.1 -4.75,-6.23 -7.07,-9.42z"/>
  <path class="fil3" d="M426.73 841.91c-2.79,-2.79 -5.51,-5.61 -8.2,-8.46l143.57 -137.09c1.63,1.75 3.28,3.48 4.99,5.19 1.7,1.7 3.44,3.36 5.19,4.99l-137.09 143.57c-2.85,-2.69 -5.67,-5.41 -8.46,-8.2z"/>
  <path class="fil3" d="M474.5 882.71c-3.19,-2.32 -6.32,-4.68 -9.42,-7.07l120.36 -157.86c1.88,1.47 3.79,2.93 5.74,4.34 1.95,1.42 3.92,2.78 5.9,4.12l-112.95 163.25c-3.23,-2.21 -6.45,-4.46 -9.63,-6.77z"/>
  <path class="fil3" d="M528.05 915.53c-3.51,-1.79 -6.97,-3.63 -10.41,-5.51l94.18 -174.75c2.09,1.16 4.2,2.3 6.35,3.39 2.15,1.09 4.31,2.13 6.48,3.14l-86.02 178.91c-3.54,-1.67 -7.07,-3.39 -10.58,-5.18z"/>
  <path class="fil3" d="M586.09 939.57c-3.75,-1.22 -7.46,-2.5 -11.14,-3.81l65.68 -187.33c2.25,0.82 4.51,1.61 6.8,2.36 2.29,0.75 4.59,1.43 6.89,2.09l-56.97 190.16c-3.76,-1.1 -7.51,-2.25 -11.25,-3.46z"/>
  <path class="fil3" d="M647.17 954.23c-3.89,-0.62 -7.75,-1.3 -11.6,-2.02l35.57 -195.3c2.35,0.46 4.7,0.89 7.09,1.27 2.38,0.38 4.76,0.69 7.13,0.99l-26.52 196.73c-3.88,-0.5 -7.77,-1.04 -11.66,-1.66z"/>
  <path class="fil3" d="M709.79 959.16c-3.94,0 -7.86,-0.07 -11.78,-0.18l4.58 -198.46c2.39,0.08 4.79,0.14 7.2,0.14 2.41,0 4.81,-0.06 7.19,-0.14l4.58 198.46c-3.91,0.11 -7.84,0.18 -11.77,0.18z"/>
  <path class="fil3" d="M772.42 954.23c-3.89,0.62 -7.78,1.16 -11.66,1.66l-26.52 -196.73c2.37,-0.29 4.75,-0.61 7.13,-0.99 2.38,-0.38 4.74,-0.81 7.09,-1.27l35.57 195.3c-3.85,0.73 -7.71,1.41 -11.6,2.02z"/>
  <path class="fil3" d="M833.5 939.57c-3.75,1.22 -7.5,2.36 -11.26,3.46l-56.97 -190.16c2.3,-0.66 4.59,-1.34 6.89,-2.09 2.29,-0.74 4.55,-1.54 6.8,-2.36l65.68 187.33c-3.68,1.32 -7.4,2.6 -11.14,3.81z"/>
  <path class="fil3" d="M891.53 915.53c-3.51,1.79 -7.04,3.51 -10.58,5.18l-86.02 -178.91c2.17,-1.01 4.33,-2.05 6.47,-3.14 2.15,-1.1 4.26,-2.23 6.35,-3.39l94.18 174.75c-3.43,1.88 -6.9,3.72 -10.41,5.51z"/>
  <path class="fil3" d="M945.09 882.71c-3.19,2.31 -6.4,4.56 -9.63,6.77l-112.95 -163.25c1.98,-1.34 3.95,-2.7 5.9,-4.12 1.95,-1.42 3.86,-2.87 5.74,-4.34l120.36 157.86c-3.1,2.39 -6.23,4.75 -9.42,7.07z"/>
  <path class="fil3" d="M992.86 841.91c-2.79,2.79 -5.61,5.51 -8.46,8.2l-137.09 -143.57c1.75,-1.63 3.48,-3.28 5.19,-4.99 1.7,-1.7 3.36,-3.44 4.99,-5.19l143.57 137.09c-2.69,2.85 -5.41,5.67 -8.2,8.46z"/>
  <path class="fil3" d="M1033.65 794.15c-2.32,3.19 -4.68,6.32 -7.07,9.42l-157.86 -120.36c1.47,-1.88 2.93,-3.79 4.34,-5.74 1.42,-1.95 2.78,-3.92 4.12,-5.9l163.25 112.95c-2.21,3.23 -4.46,6.45 -6.77,9.63z"/>
  <path class="fil3" d="M1033.65 323.55c2.32,3.19 4.56,6.4 6.77,9.63l-172.99 119.68 -307.14 223.15 -167.3 127.55c-2.39,-3.1 -4.75,-6.23 -7.07,-9.42 -2.32,-3.18 -4.57,-6.4 -6.77,-9.64l172.99 -119.69 307.14 -223.15 167.29 -127.54c2.39,3.1 4.76,6.23 7.07,9.42z"/>
  <path class="fil4" d="M1185.87 1079.54l2.36 0 5.41 9.85 5.93 0 -5.99 -10.25c3.11,-0.23 5.64,-1.78 5.64,-6.1 0,-5.36 -3.57,-7.08 -9.62,-7.08l-8.75 0 0 23.43 5.01 0 0 -9.85zm0 -3.97l0 -5.64 3.51 0c1.9,0 4.49,0.17 4.49,2.59 0,2.59 -1.33,3.05 -3.57,3.05l-4.43 0zm25.44 2.13c0,-13.76 -10.3,-21.76 -21.82,-21.76 -11.57,0 -21.88,8 -21.88,21.76 0,13.76 10.3,21.76 21.88,21.76 11.51,0 21.82,-8 21.82,-21.76zm-6.28 0c0,10.02 -7.14,16.75 -15.54,16.75l0 -0.06 -0.12 0c-8.58,0 -15.49,-6.74 -15.49,-16.7 0,-10.02 6.97,-16.7 15.6,-16.7 8.41,0 15.54,6.68 15.54,16.7z"/>
  <path class="fil1" d="M996.42 1216.37l0 -42.47c0,-10.15 1,-19.78 4,-27.61 9.54,-24.86 30.58,-26.19 41.54,-31.7l-10.82 -27.43c-13.56,0.15 -20.9,6.97 -28.82,15.21 -3.65,3.79 -3.75,4.99 -6.88,7.39l-0.41 -20.14 -33.5 1.15 0 125.35 34.88 0.24z"/>
  <path class="fil1" d="M480.77 1158.13c-5.04,-13.65 2.51,-30.49 11.64,-37.44 10.61,-8.07 30.57,-10.52 38.81,0.51l-50.45 36.93zm14.6 25.12l75.88 -57.12c-16.22,-58.11 -116.95,-54.21 -123.78,18.58 -7.22,76.96 88.98,95.86 124.62,49.94l-18.36 -20.94c-3.78,2.47 -33.37,29.98 -58.35,9.54z"/>
  <path class="fil1" d="M1080.42 1158.13c-5.04,-13.65 2.51,-30.49 11.64,-37.44 10.61,-8.07 30.57,-10.52 38.81,0.51l-50.45 36.93zm14.6 25.12l75.88 -57.12c-16.22,-58.11 -116.95,-54.21 -123.78,18.58 -7.22,76.96 88.98,95.86 124.62,49.94l-18.36 -20.94c-3.78,2.47 -33.37,29.98 -58.36,9.54z"/>
 </g>
</svg>
