<svg id="Layer_1" data-name="Layer 1"
    xmlns="http://www.w3.org/2000/svg" viewBox="0 0 250 100">
    <defs>
        <style>.cls-1{fill:#9a2022;}</style>
    </defs>
    <g id="Layer_2" data-name="Layer 2">
        <path class="cls-1" d="M124.15,29.31c0,.35,0,.72,0,1.09,0,8.76,0,17.52,0,26.3A14.16,14.16,0,0,1,96.29,60c-1.35-5.87.35-10.93,5.16-14.63s10-3.9,15.4-1.18c.29.14.56.29.86.46,0,0,.07,0,.29,0,0-.42,0-.84,0-1.26,0-2.84,0-5.65,0-8.49A5.89,5.89,0,0,1,124.15,29.31ZM110.06,48.56a7.93,7.93,0,0,0-8,7.89,8,8,0,1,0,8-7.89Z"/>
        <path class="cls-1" d="M56,70.61a6.06,6.06,0,0,1-6.11-6.16c-.05-2.74,0-5.48,0-8.24a6.32,6.32,0,0,0-6.22-6.57,6.43,6.43,0,0,0-6.41,6.54c-.1,3.65-2.69,6.34-6.14,6.19,0-2.07,0-4.14,0-6.21a6.34,6.34,0,0,0-5.48-6.42,6.24,6.24,0,0,0-7.13,5.8c-.13,2.86,0,5.72-.05,8.59-.05,3.42-2,5.87-5.08,6.46-.32,0-.65,0-1,.07a4.06,4.06,0,0,1-.12-.74c0-4.66-.08-9.32,0-14a12.57,12.57,0,0,1,21.91-8.32l.81-.71A12.11,12.11,0,0,1,47.22,44a12,12,0,0,1,8.51,9.35,13.85,13.85,0,0,1,.3,2.79c0,4.51,0,9,0,13.52A7.06,7.06,0,0,1,56,70.61Z"/>
        <path class="cls-1" d="M90.25,56.6A14.18,14.18,0,1,1,76.19,42.39,14.12,14.12,0,0,1,90.25,56.6Zm-6.17,0a8,8,0,1,0-16-.14,8,8,0,0,0,16,.14Z"/>
        <path class="cls-1" d="M237.86,70.61a6,6,0,0,1-6.14-6c-.05-2.44,0-4.91-.05-7.35a8.19,8.19,0,0,0-2.2-5.58,5.36,5.36,0,0,0-8.14,0,8.45,8.45,0,0,0-2.24,5.82c-.05,2.42,0,4.83,0,7.25a6.1,6.1,0,0,1-5,5.92,13.06,13.06,0,0,1-1.3.15c0-4.29,0-8.46,0-12.63a21.77,21.77,0,0,1,.42-4A13,13,0,0,1,223.7,43.67c4.54-.69,8.19,1.06,11,4.59A12.88,12.88,0,0,1,237.79,56C238,60.79,237.86,65.68,237.86,70.61Z"/>
        <path class="cls-1" d="M161,51.94c2.74-.37,5.38,1.77,6.1,4.68a19.48,19.48,0,0,0,1.55,5c2.12,3.82,6.79,4.17,9.33.71a8.39,8.39,0,0,0,1.63-3.87c.29-2.91.19-5.87.27-8.81a6.08,6.08,0,0,1,4.76-5.8,11.55,11.55,0,0,1,1.26-.14,5.11,5.11,0,0,1,.12.76c0,4.34.07,8.69,0,13a13.71,13.71,0,0,1-4.67,10.19,11.57,11.57,0,0,1-16.92-1.33,15,15,0,0,1-3.38-9.15C161,55.42,161,53.66,161,51.94Z"/>
        <path class="cls-1" d="M129.75,43.8a5.81,5.81,0,0,1,6,5.4c.12,2.37,0,4.74,0,7.1a9.91,9.91,0,0,0,1.6,5.7c2.44,3.53,7,3.63,9.33,0a11.55,11.55,0,0,0,1.6-4.29c.52-2.89,1.83-5,4.74-5.8.47-.12,1-.12,1.5-.2.4,5.56.23,10.84-3.82,15.15a11.64,11.64,0,0,1-17.89-.81,14,14,0,0,1-3.18-8.59c-.1-4.41,0-8.83,0-13.25A2.1,2.1,0,0,1,129.75,43.8Z"/>
        <path class="cls-1" d="M192.1,70.61c.12-5,0-9.94.49-14.8a12.48,12.48,0,0,1,10.06-10.93c2.74-.44,5.63-.07,8.47-.07.39,2.64-2.27,5.67-5.36,6-4.78.44-7.3,3.2-7.37,8,0,2,0,4,0,6A6,6,0,0,1,192.1,70.61Z"/>
        <path class="cls-1" d="M37.2,67.53a3.11,3.11,0,1,1-3.13-3.11A3.11,3.11,0,0,1,37.2,67.53Z"/>
        <path class="cls-1" d="M151.61,49.89a3.12,3.12,0,0,1-3.18-3.06,3.15,3.15,0,0,1,6.29-.07A3.12,3.12,0,0,1,151.61,49.89Z"/>
        <path class="cls-1" d="M167.32,46.81a3.13,3.13,0,1,1-3.1-3.09A3.06,3.06,0,0,1,167.32,46.81Z"/>
    </g>
</svg>
