<svg id="Layer_1" data-name="Layer 1" xmlns="http://www.w3.org/2000/svg" viewBox="11.7 43 45 28"><defs><style>.cls-1{fill:#fff;}</style></defs><g id="Layer_2" data-name="Layer 2"><path class="cls-1" d="M56,70.61a6.06,6.06,0,0,1-6.11-6.16c-.05-2.74,0-5.48,0-8.24a6.32,6.32,0,0,0-6.22-6.57,6.43,6.43,0,0,0-6.41,6.54c-.1,3.65-2.69,6.34-6.14,6.19,0-2.07,0-4.14,0-6.21a6.34,6.34,0,0,0-5.48-6.42,6.24,6.24,0,0,0-7.13,5.8c-.13,2.86,0,5.72-.05,8.59-.05,3.42-2,5.87-5.08,6.46-.32,0-.65,0-1,.07a4.06,4.06,0,0,1-.12-.74c0-4.66-.08-9.32,0-14a12.57,12.57,0,0,1,21.91-8.32l.81-.71A12.11,12.11,0,0,1,47.22,44a12,12,0,0,1,8.51,9.35,13.85,13.85,0,0,1,.3,2.79c0,4.51,0,9,0,13.52A7.06,7.06,0,0,1,56,70.61Z"/><path class="cls-1" d="M37.2,67.53a3.11,3.11,0,1,1-3.13-3.11A3.11,3.11,0,0,1,37.2,67.53Z"/></g></svg>